<svg xmlns="http://www.w3.org/2000/svg" version="1.1" xmlns:xlink="http://www.w3.org/1999/xlink" xmlns:svgjs="http://svgjs.dev/svgjs" width="1500" height="1500" viewBox="0 0 1500 1500"><rect width="1500" height="1500" fill="#000000"></rect><g transform="matrix(0.6666666666666666,0,0,0.6666666666666666,249.50000000000006,249.50000000000006)"><svg viewBox="0 0 280 280" data-background-color="#ffffff" preserveAspectRatio="xMidYMid meet" height="1500" width="1500" xmlns="http://www.w3.org/2000/svg" xmlns:xlink="http://www.w3.org/1999/xlink"><g id="tight-bounds" transform="matrix(1,0,0,1,0.13999999999998636,0.13999999999998636)"><svg viewBox="0 0 279.72 279.72" height="279.72" width="279.72"><g><svg viewBox="0 0 279.72 279.72" height="279.72" width="279.72"><g><svg viewBox="0 0 279.72 279.72" height="279.72" width="279.72"><g id="textblocktransform"><svg viewBox="0 0 279.72 279.72" height="279.72" width="279.72" id="textblock"><g><svg viewBox="0 0 279.72 279.72" height="279.72" width="279.72"><g transform="matrix(1,0,0,1,73.92936372216631,96.95970623925504)"><svg viewBox="0 0 131.8612725556674 85.80058752148996" height="85.80058752148996" width="131.8612725556674"><g id="icon-0"><svg xmlns="http://www.w3.org/2000/svg" xmlns:xlink="http://www.w3.org/1999/xlink" version="1.1" x="0" y="0" viewBox="8.34 22.892 83.32099999999998 54.215999999999994" enable-background="new 0 0 100 100" xml:space="preserve" height="85.80058752148996" width="131.8612725556674" class="icon-xg-0" data-fill-palette-color="accent" id="xg-0"><path fill="#ffffff" d="M91.66 36.934v-4.635c0-5.188-4.22-9.407-9.408-9.407H17.748c-5.188 0-9.408 4.22-9.408 9.407v4.635H91.66z" data-fill-palette-color="accent"></path><path fill="#ffffff" d="M8.34 40.254v27.447c0 5.188 4.22 9.407 9.408 9.407h64.505c5.188 0 9.408-4.22 9.408-9.407V40.254H8.34zM50 63.652H19.799c-0.917 0-1.66-0.743-1.66-1.66s0.743-1.66 1.66-1.66H50c0.917 0 1.66 0.743 1.66 1.66S50.917 63.652 50 63.652z" data-fill-palette-color="accent"></path></svg></g></svg></g><g id="text-0"><path d="M7.18 94.758c0.45-1.329 1.068-2.429 1.854-3.298 0.786-0.869 1.794-1.629 3.024-2.279v0l1.97 3.232c-0.823 0.448-1.485 0.93-1.985 1.446-0.494 0.518-0.865 1.144-1.113 1.877v0c-0.511 1.509-0.156 2.945 1.066 4.307 1.219 1.368 3.599 2.651 7.14 3.85v0c3.497 1.184 6.152 1.604 7.963 1.262 1.81-0.336 2.979-1.283 3.506-2.842v0c0.265-0.783 0.337-1.516 0.216-2.202-0.115-0.683-0.369-1.527-0.763-2.532v0l3.422-1.397c0.629 1.106 1.051 2.325 1.264 3.658 0.207 1.33 0.073 2.7-0.404 4.11v0c-0.997 2.944-2.934 4.895-5.813 5.853-2.872 0.959-6.573 0.673-11.101-0.86v0c-2.988-1.011-5.348-2.271-7.081-3.778-1.731-1.514-2.848-3.162-3.352-4.946-0.506-1.777-0.444-3.598 0.187-5.461z" fill="#ffffff" data-fill-palette-color="primary"></path><path d="M44.839 72.143c0.578 0.373 1.058 0.574 1.439 0.6 0.379 0.018 0.773-0.09 1.182-0.325v0l2.204 2.606c-0.706 0.84-1.423 1.411-2.149 1.715-0.732 0.3-1.577 0.332-2.533 0.097v0c1.035 2.12 0.955 4.106-0.24 5.957v0c-0.95 1.471-2.201 2.321-3.755 2.552-1.559 0.227-3.162-0.192-4.81-1.256v0c-1.917-1.238-2.991-2.778-3.222-4.621-0.24-1.841 0.375-3.899 1.844-6.174v0l0.886-1.372-1.232-0.795c-1.118-0.722-2.032-1.035-2.742-0.939-0.706 0.09-1.34 0.571-1.902 1.441v0c-0.679 1.052-1.23 2.546-1.653 4.483v0l-3.28-0.795c0.174-1.152 0.463-2.277 0.867-3.374 0.41-1.094 0.895-2.076 1.457-2.946v0c2.504-3.878 5.717-4.551 9.64-2.019v0zM42.474 79.76c0.69-1.069 0.479-2.356-0.633-3.863v0l-3.71-2.395-0.624 0.966c-0.736 1.14-1.017 2.138-0.843 2.992 0.174 0.854 0.796 1.626 1.865 2.317v0c0.915 0.59 1.707 0.88 2.378 0.868 0.667-0.006 1.19-0.301 1.567-0.885z" fill="#ffffff" data-fill-palette-color="primary"></path><path d="M50.193 41.98c0.437-0.426 0.891-0.74 1.362-0.942v0l2.711 3.923c-0.472 0.277-0.87 0.573-1.195 0.889v0c-0.723 0.705-0.99 1.573-0.799 2.605 0.195 1.037 0.782 2.282 1.76 3.737v0l8.086 8.3-3.508 3.418-14.697-15.084 3.051-2.972 2.807 2.374c-1.24-2.683-1.1-4.765 0.422-6.248z" fill="#ffffff" data-fill-palette-color="primary"></path><path d="M69.509 18.119l4.453-2.104 15.309 25.228-3.708 2.25-1.463-1.955c-0.023 2.376-0.873 4.073-2.548 5.091v0c-1.861 1.129-3.792 1.158-5.793 0.086-1.997-1.066-3.906-3.099-5.726-6.098v0c-1.157-1.906-1.917-3.734-2.281-5.485-0.364-1.75-0.325-3.285 0.117-4.604 0.439-1.325 1.247-2.344 2.424-3.059v0c1.452-0.881 3.007-1.004 4.666-0.369v0zM80.813 42.739c0.527-0.32 0.887-0.788 1.081-1.404 0.203-0.614 0.301-1.387 0.296-2.319v0l-5.307-8.746c-1.468-0.789-2.668-0.901-3.599-0.336v0c-1.839 1.116-1.477 3.784 1.085 8.006v0c1.391 2.293 2.61 3.789 3.656 4.489 1.046 0.7 1.976 0.803 2.788 0.31z" fill="#ffffff" data-fill-palette-color="primary"></path><path d="M137.837 2.385l4.686-0.378-1.637 27.734-6.628 0.536-4.715-21.833-1.275 22.317-6.511 0.526-5.98-27.119 4.882-0.395 4.428 23.169 1.406-23.64 5.353-0.433 5.105 23.114z" fill="#ffffff" data-fill-palette-color="primary"></path><path d="M160.564 10.044l4.837 0.778-3.349 20.792-4.836-0.779zM164.635 0.049c0.861 0.139 1.516 0.526 1.965 1.163 0.449 0.637 0.603 1.389 0.463 2.256v0c-0.135 0.835-0.515 1.485-1.141 1.949-0.626 0.464-1.37 0.626-2.23 0.487v0c-0.868-0.14-1.526-0.528-1.975-1.164-0.449-0.637-0.606-1.373-0.471-2.208v0c0.14-0.868 0.523-1.533 1.149-1.997 0.626-0.464 1.373-0.626 2.24-0.486z" fill="#ffffff" data-fill-palette-color="primary"></path><path d="M182.744 15.509l12.081 4.65-1.272 3.305-12.744 9.724 7.986 3.074-1.792 3.452-12.485-4.806 1.272-3.304 12.748-9.733-7.179-2.764z" fill="#ffffff" data-fill-palette-color="primary"></path><path d="M237.065 41.269c2.403 2.288 3.73 4.565 3.981 6.832 0.241 2.267-0.626 4.438-2.602 6.514v0c-2.107 2.213-4.303 3.279-6.587 3.195-2.28-0.088-4.555-1.212-6.824-3.373v0l-1.155-1.099-6.673 7.011-3.662-3.486 18.969-19.927zM227.437 51.511c1.249 1.189 2.427 1.758 3.535 1.708 1.103-0.046 2.323-0.772 3.662-2.177v0c1.207-1.268 1.806-2.454 1.798-3.558-0.004-1.108-0.621-2.248-1.852-3.419v0l-0.983-0.936-7.114 7.473z" fill="#ffffff" data-fill-palette-color="primary"></path><path d="M256.185 74.475c0.332 0.511 0.552 1.018 0.659 1.52v0l-4.378 1.892c-0.179-0.517-0.392-0.965-0.638-1.345v0c-0.55-0.847-1.35-1.278-2.399-1.292-1.055-0.011-2.391 0.321-4.009 0.996v0l-9.719 6.311-2.667-4.109 17.663-11.469 2.319 3.573-2.876 2.289c2.873-0.693 4.888-0.148 6.045 1.634z" fill="#ffffff" data-fill-palette-color="primary"></path><path d="M266.947 98.328c0.902 2.498 0.73 4.753-0.517 6.765-1.251 2.02-3.597 3.652-7.038 4.894v0c-3.3 1.192-6.125 1.42-8.474 0.686-2.354-0.726-3.977-2.325-4.87-4.798v0c-0.893-2.473-0.686-4.737 0.622-6.793 1.304-2.046 3.643-3.679 7.016-4.897v0c3.343-1.207 6.167-1.439 8.471-0.695 2.3 0.752 3.897 2.365 4.79 4.838zM263.469 99.584c-0.388-1.073-1.202-1.668-2.443-1.785-1.241-0.117-3.111 0.276-5.609 1.179v0c-2.523 0.911-4.224 1.808-5.105 2.69-0.88 0.883-1.127 1.861-0.739 2.934v0c0.388 1.073 1.202 1.668 2.443 1.784 1.241 0.117 3.123-0.281 5.646-1.191v0c2.523-0.911 4.218-1.805 5.086-2.684 0.868-0.878 1.108-1.854 0.721-2.927z" fill="#ffffff" data-fill-palette-color="primary"></path><path d="M3.981 143.516c0-6.661 5.4-12.062 12.062-12.062 6.661 0 12.062 5.4 12.061 12.062 0 6.661-5.4 12.062-12.061 12.061-6.661 0-12.062-5.4-12.062-12.061z" fill="#ffffff" data-fill-palette-color="primary"></path><path d="M251.616 143.516c0-6.661 5.4-12.062 12.061-12.062 6.661 0 12.062 5.4 12.062 12.062 0 6.661-5.4 12.062-12.062 12.061-6.661 0-12.062-5.4-12.061-12.061z" fill="#ffffff" data-fill-palette-color="primary"></path></g><g id="text-1"><path d="M43.468 181.568c0.533 1.523 0.753 2.957 0.662 4.302-0.1 1.341-0.477 2.737-1.129 4.188v0l-4.067-1.525c0.431-0.992 0.687-1.898 0.768-2.718 0.081-0.82-0.023-1.645-0.314-2.475v0c-0.604-1.727-1.938-2.778-4.001-3.154-2.069-0.374-5.131 0.149-9.185 1.568v0c-3.998 1.399-6.696 2.892-8.093 4.479-1.397 1.587-1.784 3.271-1.16 5.054v0c0.312 0.891 0.763 1.605 1.355 2.142 0.591 0.537 1.417 1.12 2.477 1.748v0l-2.098 3.684c-1.356-0.56-2.601-1.368-3.735-2.424-1.127-1.057-1.973-2.391-2.536-4v0c-1.176-3.361-0.803-6.493 1.12-9.396 1.925-2.897 5.475-5.251 10.649-7.062v0c3.423-1.198 6.448-1.725 9.076-1.582 2.634 0.141 4.809 0.839 6.527 2.093 1.711 1.256 2.939 2.949 3.684 5.078z" fill="#ffffff" data-fill-palette-color="secondary"></path><path d="M36.627 223.33c-0.662 0.438-1.093 0.849-1.295 1.235-0.198 0.39-0.264 0.855-0.198 1.393v0l-3.755 1.118c-0.562-1.122-0.833-2.138-0.814-3.048 0.019-0.909 0.37-1.81 1.054-2.703v0c-2.701 0.113-4.75-0.886-6.148-2.996v0c-1.111-1.679-1.429-3.388-0.952-5.126 0.477-1.739 1.655-3.231 3.537-4.477v0c2.182-1.444 4.295-1.864 6.338-1.259 2.041 0.599 3.919 2.195 5.635 4.787v0l1.032 1.558 1.41-0.934c1.269-0.84 2.019-1.655 2.251-2.445 0.226-0.787 0.012-1.675-0.644-2.665v0c-0.793-1.197-2.108-2.466-3.946-3.804v0l2.345-3.087c1.127 0.717 2.173 1.542 3.138 2.477 0.961 0.929 1.771 1.891 2.429 2.886v0c2.925 4.418 2.154 8.106-2.313 11.063v0zM29.697 217.336c0.807 1.219 2.257 1.592 4.351 1.119v0l4.232-2.802-0.727-1.099c-0.858-1.296-1.777-2.048-2.757-2.257-0.98-0.209-2.079 0.091-3.298 0.898v0c-1.039 0.688-1.709 1.387-2.01 2.097-0.295 0.707-0.225 1.388 0.209 2.044z" fill="#ffffff" data-fill-palette-color="secondary"></path><path d="M68.223 229.332c0.507 0.485 0.885 0.996 1.133 1.533v0l-4.386 3.264c-0.337-0.53-0.692-0.975-1.066-1.332v0c-0.839-0.802-1.847-1.072-3.024-0.809-1.177 0.263-2.582 0.983-4.216 2.161v0l-9.19 9.613-4.06-3.881 16.701-17.47 3.534 3.378-2.604 3.322c3.027-1.534 5.419-1.46 7.178 0.221z" fill="#ffffff" data-fill-palette-color="secondary"></path><path d="M92.526 233.769l4.517 3.392-17.343 29.078-4.275-2.55 1.189-2.531c-2.414 1.256-4.589 1.306-6.526 0.15v0c-2.146-1.28-3.213-3.222-3.202-5.827 0.008-2.599 1.041-5.625 3.101-9.077v0c1.313-2.202 2.758-3.959 4.335-5.271 1.582-1.309 3.163-2.096 4.741-2.361 1.575-0.259 3.041 0.016 4.398 0.825v0c1.673 0.998 2.634 2.51 2.883 4.538v0zM73.642 258.48c0.597 0.356 1.264 0.467 2 0.334 0.733-0.128 1.569-0.442 2.509-0.943v0l6.016-10.087c0.004-1.914-0.529-3.19-1.599-3.829v0c-2.118-1.263-4.628 0.538-7.53 5.405v0c-1.575 2.641-2.44 4.68-2.594 6.115-0.148 1.439 0.251 2.44 1.198 3.005z" fill="#ffffff" data-fill-palette-color="secondary"></path><path d="M142.77 248.162l5.375 0.404-6.787 31.154-7.602-0.57-1.473-25.59-5.412 25.073-7.475-0.561-1.963-31.811 5.601 0.42 0.909 27.057 5.791-26.554 6.15 0.461 1.684 27.115z" fill="#ffffff" data-fill-palette-color="secondary"></path><path d="M157.525 254.567l5.54-0.926 3.985 23.837-5.539 0.926zM158.28 242.204c0.99-0.165 1.848 0.017 2.575 0.547 0.719 0.525 1.162 1.285 1.329 2.281v0c0.16 0.957-0.014 1.804-0.523 2.541-0.516 0.731-1.269 1.18-2.258 1.345v0c-0.99 0.165-1.844-0.014-2.563-0.539-0.727-0.53-1.17-1.274-1.331-2.231v0c-0.167-0.996 0.008-1.86 0.524-2.591 0.508-0.737 1.258-1.188 2.247-1.353z" fill="#ffffff" data-fill-palette-color="secondary"></path><path d="M173.965 250.618l13.855-5.354 1.464 3.789-3.343 18.091 9.157-3.539 1.131 4.319-14.322 5.535-1.465-3.789 3.349-18.104-8.23 3.181z" fill="#ffffff" data-fill-palette-color="secondary"></path><path d="M211.075 220.03c2.784-2.591 5.484-3.949 8.101-4.074 2.612-0.12 5.037 1.023 7.276 3.428v0c2.39 2.568 3.455 5.156 3.195 7.763-0.251 2.608-1.692 5.136-4.323 7.585v0l-1.339 1.246 7.567 8.129-4.248 3.954-21.514-23.112zM222.131 231.778c1.45-1.349 2.186-2.662 2.208-3.937 0.022-1.266-0.724-2.712-2.238-4.34v0c-1.372-1.474-2.69-2.245-3.954-2.313-1.269-0.064-2.616 0.567-4.042 1.895v0l-1.138 1.059 8.063 8.661z" fill="#ffffff" data-fill-palette-color="secondary"></path><path d="M236.084 200.004c0.389-0.584 0.826-1.045 1.312-1.383v0l3.979 3.75c-0.464 0.424-0.839 0.851-1.126 1.282v0c-0.644 0.966-0.733 2.005-0.27 3.119 0.464 1.113 1.418 2.371 2.863 3.775v0l11.067 7.373-3.114 4.675-20.113-13.401 2.711-4.068 3.725 1.985c-2.038-2.713-2.382-5.082-1.034-7.107z" fill="#ffffff" data-fill-palette-color="secondary"></path><path d="M244.048 181.781c1.073-2.854 2.904-4.695 5.493-5.522 2.59-0.833 5.853-0.51 9.787 0.97v0c3.762 1.415 6.399 3.318 7.91 5.708 1.511 2.39 1.736 4.997 0.674 7.82v0c-1.062 2.823-2.927 4.644-5.596 5.462-2.669 0.818-5.927 0.503-9.776-0.945v0c-3.824-1.438-6.461-3.341-7.91-5.707-1.45-2.367-1.644-4.962-0.582-7.786zM248.026 183.277c-0.462 1.228-0.195 2.354 0.799 3.38 0.997 1.019 2.922 2.066 5.776 3.139v0c2.879 1.083 5.032 1.57 6.459 1.463 1.424-0.116 2.367-0.788 2.829-2.015v0c0.462-1.228 0.195-2.354-0.799-3.38-1.001-1.028-2.94-2.083-5.819-3.166v0c-2.879-1.083-5.024-1.564-6.436-1.443-1.412 0.121-2.348 0.795-2.809 2.022z" fill="#ffffff" data-fill-palette-color="secondary"></path></g></svg></g></svg></g></svg></g><g></g></svg></g><defs></defs></svg><rect width="279.72" height="279.72" fill="none" stroke="none" visibility="hidden"></rect></g></svg></g></svg>